<svg width="292" height="116" viewBox="0 0 292 116" fill="none" xmlns="http://www.w3.org/2000/svg">
<path d="M18.944 64C16.384 64 14.6347 63.5093 13.696 62.528C12.7573 61.504 12.288 59.9467 12.288 57.856C12.288 57.1307 12.3307 55.9573 12.416 54.336C12.5013 52.7147 12.6933 50.1973 12.992 46.784C12.6507 46.144 12.352 45.5893 12.096 45.12C11.84 44.6507 11.584 44.16 11.328 43.648C11.072 43.136 10.7947 42.5387 10.496 41.856C10.1973 41.1733 9.81333 40.32 9.344 39.296C8.61867 37.7173 7.78667 35.8827 6.848 33.792C5.952 31.7013 5.07733 29.696 4.224 27.776C3.37067 25.8133 2.64533 24.0853 2.048 22.592C1.49333 21.0987 1.216 20.16 1.216 19.776C1.216 18.88 2.64533 18.432 5.504 18.432C7.296 18.432 8.72533 18.624 9.792 19.008C10.9013 19.3493 11.7973 19.84 12.48 20.48C13.1627 21.0773 13.6747 21.8027 14.016 22.656C14.3573 23.4667 14.6773 24.3413 14.976 25.28C15.36 26.5173 15.6373 27.4347 15.808 28.032C15.9787 28.6293 16.1067 29.12 16.192 29.504C16.32 29.888 16.448 30.272 16.576 30.656C16.704 30.9973 16.8747 31.552 17.088 32.32C17.344 33.088 17.6853 34.1547 18.112 35.52C18.5387 36.8853 19.136 38.7627 19.904 41.152C21.1413 38.5493 22.1227 36.4373 22.848 34.816C23.616 33.1947 24.2773 31.7013 24.832 30.336C25.3867 28.928 25.8987 27.4987 26.368 26.048C26.88 24.5547 27.52 22.6773 28.288 20.416C28.544 19.6053 28.8 19.0933 29.056 18.88C29.3547 18.624 29.8027 18.496 30.4 18.496C30.6133 18.496 31.1893 18.5387 32.128 18.624C33.1093 18.6667 34.112 18.816 35.136 19.072C36.2027 19.328 37.1627 19.7333 38.016 20.288C38.8693 20.8427 39.296 21.5893 39.296 22.528C39.296 23.2533 39.04 24.2773 38.528 25.6C38.0587 26.9227 37.4187 28.416 36.608 30.08C35.84 31.7013 34.9227 33.4293 33.856 35.264C32.832 37.0987 31.7653 38.8907 30.656 40.64C29.5467 42.3893 28.4373 44.0107 27.328 45.504C26.2613 46.9547 25.28 48.1493 24.384 49.088C24.3413 50.112 24.2773 51.328 24.192 52.736C24.1493 54.144 24.064 55.552 23.936 56.96C23.8507 58.3253 23.7653 59.584 23.68 60.736C23.5947 61.8453 23.5307 62.6133 23.488 63.04C23.4453 63.3813 23.36 63.6373 23.232 63.808C23.104 63.936 22.848 64 22.464 64H18.944ZM52.7725 64.64C49.8285 64.64 47.3752 64.2347 45.4125 63.424C43.4925 62.5707 41.9565 61.4187 40.8045 59.968C39.6525 58.5173 38.8418 56.832 38.3725 54.912C37.9032 52.9493 37.6685 50.8587 37.6685 48.64C37.6685 46.08 37.9672 43.584 38.5645 41.152C39.2045 38.6773 40.2712 36.48 41.7645 34.56C43.2578 32.64 45.2205 31.104 47.6525 29.952C50.1272 28.7573 53.1992 28.16 56.8685 28.16C62.2445 28.16 66.0845 29.4827 68.3885 32.128C70.7352 34.7307 71.9085 38.4 71.9085 43.136C71.9085 44.4587 71.8018 45.9307 71.5885 47.552C71.4178 49.1307 71.0552 50.7093 70.5005 52.288C69.9885 53.8667 69.2632 55.4027 68.3245 56.896C67.4285 58.3893 66.2765 59.712 64.8685 60.864C63.4605 62.016 61.7538 62.9333 59.7485 63.616C57.7858 64.2987 55.4605 64.64 52.7725 64.64ZM55.7805 36.672C54.1592 36.672 52.8578 37.0987 51.8765 37.952C50.9378 38.7627 50.2125 39.7653 49.7005 40.96C49.2312 42.112 48.9112 43.3493 48.7405 44.672C48.6125 45.952 48.5485 47.04 48.5485 47.936C48.5485 50.752 48.9965 52.8213 49.8925 54.144C50.7885 55.4667 52.0685 56.128 53.7325 56.128C55.2258 56.128 56.4418 55.6587 57.3805 54.72C58.3618 53.7813 59.1085 52.6507 59.6205 51.328C60.1752 50.0053 60.5378 48.6187 60.7085 47.168C60.9218 45.7173 61.0285 44.5013 61.0285 43.52C61.0285 41.3867 60.6232 39.7227 59.8125 38.528C59.0445 37.2907 57.7005 36.672 55.7805 36.672ZM88.9105 34.24C88.9105 35.136 88.8252 36.3947 88.6545 38.016C88.5265 39.6373 88.3772 41.3227 88.2065 43.072C88.0785 44.8213 87.9292 46.464 87.7585 48C87.6305 49.536 87.5665 50.6453 87.5665 51.328C87.5665 52.8213 87.9292 53.9947 88.6545 54.848C89.4225 55.6587 90.4678 56.064 91.7905 56.064C92.9425 56.064 93.9025 55.616 94.6705 54.72C95.4812 53.7813 96.1212 52.5867 96.5905 51.136C97.1025 49.6427 97.5078 47.9573 97.8065 46.08C98.1052 44.2027 98.3185 42.304 98.4465 40.384C98.6172 38.464 98.7452 36.608 98.8305 34.816C98.9585 32.9813 99.0865 31.4027 99.2145 30.08C99.2572 29.7387 99.3852 29.44 99.5985 29.184C99.8118 28.928 100.153 28.8 100.623 28.8H102.927C104.249 28.8 105.316 28.9493 106.127 29.248C106.98 29.504 107.641 29.888 108.111 30.4C108.623 30.912 108.964 31.552 109.135 32.32C109.348 33.0453 109.455 33.8987 109.455 34.88C109.455 35.52 109.412 36.4373 109.326 37.632C109.284 38.784 109.177 40.4053 109.007 42.496C108.836 44.544 108.623 47.168 108.367 50.368C108.153 53.5253 107.876 57.4507 107.535 62.144C107.449 63.04 107.343 63.5733 107.215 63.744C107.129 63.9147 106.788 64 106.191 64H103.695C102.415 64 101.348 63.8507 100.495 63.552C99.6838 63.2533 99.0225 62.8693 98.5105 62.4C97.9985 61.9307 97.6358 61.376 97.4225 60.736C97.2092 60.096 97.0812 59.4347 97.0385 58.752C96.3985 59.8613 95.6732 60.8 94.8625 61.568C94.0945 62.336 93.2838 62.9547 92.4305 63.424C91.5772 63.8507 90.7025 64.1493 89.8065 64.32C88.9105 64.5333 88.0358 64.64 87.1825 64.64C85.5612 64.64 84.1105 64.384 82.8305 63.872C81.5505 63.3173 80.4625 62.592 79.5665 61.696C78.7132 60.8 78.0518 59.7333 77.5825 58.496C77.1132 57.2587 76.8785 55.936 76.8785 54.528C76.8785 53.9733 76.8998 53.0773 76.9425 51.84C77.0278 50.56 77.1132 49.1307 77.1985 47.552C77.3265 45.9733 77.4545 44.3093 77.5825 42.56C77.7105 40.768 77.8172 39.0827 77.9025 37.504C78.0305 35.9253 78.1372 34.5387 78.2225 33.344C78.3505 32.1493 78.4358 31.296 78.4785 30.784C78.5638 30.016 78.7345 29.504 78.9905 29.248C79.2465 28.9493 79.6732 28.8 80.2705 28.8H82.3185C83.6412 28.8 84.7292 28.928 85.5825 29.184C86.4358 29.44 87.0972 29.8027 87.5665 30.272C88.0785 30.7413 88.4198 31.3173 88.5905 32C88.8038 32.64 88.9105 33.3867 88.9105 34.24ZM133.438 27.52L131.006 63.04C130.963 63.68 130.728 64 130.302 64H126.782C124.392 64 122.686 63.5307 121.662 62.592C120.638 61.6533 120.126 60.3093 120.126 58.56C120.126 57.92 120.147 56.96 120.19 55.68C120.275 54.4 120.382 52.9067 120.51 51.2C120.638 49.4507 120.766 47.5733 120.894 45.568C121.064 43.52 121.235 41.472 121.406 39.424C121.576 37.3333 121.726 35.264 121.854 33.216C122.024 31.168 122.174 29.2693 122.302 27.52H112.062C111.592 27.52 111.358 27.2213 111.358 26.624L111.549 23.04C111.592 22.4853 111.678 21.952 111.806 21.44C111.976 20.8853 112.232 20.3947 112.574 19.968C112.915 19.5413 113.342 19.2 113.854 18.944C114.408 18.688 115.07 18.56 115.838 18.56H144.446C144.702 18.56 144.936 18.624 145.15 18.752C145.363 18.88 145.47 19.1147 145.47 19.456L145.214 23.232C145.128 24.512 144.766 25.5573 144.126 26.368C143.528 27.136 142.27 27.52 140.35 27.52H133.438ZM156.161 34.24C156.161 35.136 156.075 36.3947 155.905 38.016C155.777 39.6373 155.627 41.3227 155.457 43.072C155.329 44.8213 155.179 46.464 155.009 48C154.881 49.536 154.817 50.6453 154.817 51.328C154.817 52.8213 155.179 53.9947 155.905 54.848C156.673 55.6587 157.718 56.064 159.041 56.064C160.193 56.064 161.153 55.616 161.921 54.72C162.731 53.7813 163.371 52.5867 163.841 51.136C164.353 49.6427 164.758 47.9573 165.057 46.08C165.355 44.2027 165.569 42.304 165.697 40.384C165.867 38.464 165.995 36.608 166.081 34.816C166.209 32.9813 166.337 31.4027 166.465 30.08C166.507 29.7387 166.635 29.44 166.849 29.184C167.062 28.928 167.403 28.8 167.873 28.8H170.177C171.499 28.8 172.566 28.9493 173.377 29.248C174.23 29.504 174.891 29.888 175.361 30.4C175.873 30.912 176.214 31.552 176.385 32.32C176.598 33.0453 176.705 33.8987 176.705 34.88C176.705 35.52 176.662 36.4373 176.576 37.632C176.534 38.784 176.427 40.4053 176.257 42.496C176.086 44.544 175.873 47.168 175.617 50.368C175.403 53.5253 175.126 57.4507 174.785 62.144C174.699 63.04 174.593 63.5733 174.465 63.744C174.379 63.9147 174.038 64 173.441 64H170.945C169.665 64 168.598 63.8507 167.745 63.552C166.934 63.2533 166.273 62.8693 165.761 62.4C165.249 61.9307 164.886 61.376 164.673 60.736C164.459 60.096 164.331 59.4347 164.289 58.752C163.649 59.8613 162.923 60.8 162.113 61.568C161.345 62.336 160.534 62.9547 159.681 63.424C158.827 63.8507 157.953 64.1493 157.057 64.32C156.161 64.5333 155.286 64.64 154.433 64.64C152.811 64.64 151.361 64.384 150.081 63.872C148.801 63.3173 147.713 62.592 146.817 61.696C145.963 60.8 145.302 59.7333 144.833 58.496C144.363 57.2587 144.129 55.936 144.129 54.528C144.129 53.9733 144.15 53.0773 144.193 51.84C144.278 50.56 144.363 49.1307 144.449 47.552C144.577 45.9733 144.705 44.3093 144.833 42.56C144.961 40.768 145.067 39.0827 145.153 37.504C145.281 35.9253 145.387 34.5387 145.473 33.344C145.601 32.1493 145.686 31.296 145.729 30.784C145.814 30.016 145.985 29.504 146.241 29.248C146.497 28.9493 146.923 28.8 147.521 28.8H149.569C150.891 28.8 151.979 28.928 152.833 29.184C153.686 29.44 154.347 29.8027 154.817 30.272C155.329 30.7413 155.67 31.3173 155.841 32C156.054 32.64 156.161 33.3867 156.161 34.24ZM196.968 64.64C193.682 64.64 191.08 64.1707 189.16 63.232C187.24 62.2507 185.789 61.0347 184.808 59.584C183.826 58.1333 183.208 56.576 182.952 54.912C182.696 53.2053 182.568 51.648 182.568 50.24C182.568 49.6853 182.61 48.5973 182.696 46.976C182.824 45.3547 182.973 43.4773 183.144 41.344C183.314 39.2107 183.485 36.9493 183.656 34.56C183.826 32.128 183.997 29.8453 184.168 27.712C184.338 25.536 184.466 23.616 184.552 21.952C184.68 20.288 184.744 19.136 184.744 18.496C184.744 17.5573 184.808 17.024 184.936 16.896C185.064 16.7253 185.448 16.64 186.088 16.64H188.584C189.864 16.64 190.93 16.7893 191.784 17.088C192.637 17.3867 193.32 17.792 193.832 18.304C194.344 18.816 194.706 19.4133 194.92 20.096C195.133 20.736 195.24 21.44 195.24 22.208C195.24 22.9333 195.154 24.3413 194.984 26.432C194.856 28.5227 194.685 30.976 194.472 33.792C195.581 31.872 196.84 30.464 198.248 29.568C199.656 28.6293 201.512 28.16 203.816 28.16C207.698 28.16 210.664 29.44 212.712 32C214.802 34.56 215.847 38.3787 215.847 43.456C215.847 44.7787 215.741 46.2293 215.528 47.808C215.357 49.3867 215.016 50.9653 214.504 52.544C214.034 54.08 213.352 55.5947 212.456 57.088C211.602 58.5387 210.472 59.8187 209.064 60.928C207.656 62.0373 205.949 62.9333 203.944 63.616C201.981 64.2987 199.656 64.64 196.968 64.64ZM199.848 36.672C198.312 36.672 197.096 37.0773 196.2 37.888C195.346 38.6987 194.685 39.68 194.216 40.832C193.746 41.984 193.448 43.2213 193.32 44.544C193.192 45.824 193.128 46.9547 193.128 47.936C193.128 50.88 193.533 52.992 194.344 54.272C195.154 55.5093 196.37 56.128 197.992 56.128C199.528 56.128 200.722 55.6587 201.576 54.72C202.472 53.7387 203.133 52.5867 203.56 51.264C204.029 49.9413 204.328 48.5973 204.456 47.232C204.584 45.8667 204.648 44.8 204.648 44.032C204.648 41.6427 204.285 39.8293 203.56 38.592C202.834 37.312 201.597 36.672 199.848 36.672ZM235.471 64.64C233.593 64.64 231.716 64.4053 229.839 63.936C228.004 63.4667 226.34 62.656 224.847 61.504C223.396 60.352 222.201 58.816 221.263 56.896C220.324 54.976 219.855 52.5653 219.855 49.664C219.855 48.5973 219.94 47.3173 220.111 45.824C220.281 44.3307 220.601 42.7947 221.071 41.216C221.583 39.6373 222.265 38.08 223.119 36.544C224.015 34.9653 225.167 33.5573 226.575 32.32C227.983 31.0827 229.689 30.08 231.695 29.312C233.7 28.544 236.089 28.16 238.863 28.16C241.081 28.16 242.959 28.416 244.495 28.928C246.031 29.44 247.268 30.144 248.207 31.04C249.145 31.8933 249.828 32.896 250.255 34.048C250.681 35.2 250.895 36.4373 250.895 37.76C250.895 39.7227 250.489 41.3867 249.679 42.752C248.911 44.1173 247.887 45.2693 246.607 46.208C245.369 47.104 243.983 47.808 242.447 48.32C240.911 48.832 239.396 49.2373 237.903 49.536C236.409 49.792 235.023 49.9627 233.743 50.048C232.505 50.0907 231.545 50.112 230.863 50.112C230.863 50.9227 230.969 51.7333 231.183 52.544C231.439 53.312 231.801 53.9947 232.271 54.592C232.74 55.1893 233.359 55.68 234.127 56.064C234.895 56.448 235.833 56.64 236.943 56.64C238.052 56.64 238.905 56.4693 239.503 56.128C240.143 55.744 240.655 55.3387 241.039 54.912C241.423 54.4427 241.743 54.0373 241.999 53.696C242.297 53.312 242.681 53.12 243.151 53.12C243.364 53.12 243.727 53.184 244.239 53.312C244.793 53.3973 245.348 53.6107 245.903 53.952C246.457 54.2933 246.948 54.7627 247.375 55.36C247.801 55.9573 248.015 56.7253 248.015 57.664C248.015 58.9013 247.631 59.968 246.863 60.864C246.095 61.76 245.092 62.4853 243.855 63.04C242.66 63.5947 241.316 64 239.823 64.256C238.329 64.512 236.879 64.64 235.471 64.64ZM236.687 36.672C235.748 36.672 234.937 36.9493 234.255 37.504C233.615 38.016 233.06 38.6773 232.591 39.488C232.164 40.2987 231.823 41.1947 231.567 42.176C231.353 43.1573 231.183 44.096 231.055 44.992C233.7 44.9493 235.833 44.5013 237.455 43.648C239.119 42.7947 239.951 41.5787 239.951 40C239.951 39.1467 239.673 38.3787 239.119 37.696C238.607 37.0133 237.796 36.672 236.687 36.672Z" fill="white"/>
<path d="M166.256 101C164.059 101 162.459 100.989 161.456 100.968C160.539 100.968 159.835 100.957 159.344 100.936L156.72 100.904C156.528 100.904 156.347 100.819 156.176 100.648C156.005 100.477 155.92 100.296 155.92 100.104V93.064V89.992L155.888 87.368C155.888 86.4933 155.909 85.3947 155.952 84.072C155.952 83.7947 155.984 83.08 156.048 81.928V81.192C156.048 80.5947 156.165 80.1147 156.4 79.752C156.507 79.56 156.677 79.464 156.912 79.464C157.957 79.464 159.099 79.4853 160.336 79.528C160.507 79.5493 160.752 79.56 161.072 79.56C161.776 79.56 162.299 79.5707 162.64 79.592H164.368C164.453 79.592 164.699 79.592 165.104 79.592C165.531 79.592 165.861 79.6453 166.096 79.752C166.48 79.9653 166.672 80.456 166.672 81.224L166.64 81.48C166.64 81.544 166.619 81.704 166.576 81.96C166.512 82.28 166.48 82.5147 166.48 82.664C166.48 82.8987 166.512 83.1973 166.576 83.56C166.619 83.816 166.64 83.9867 166.64 84.072L166.672 84.264V88.744V90.824V92.808V93.192C166.672 93.3627 166.768 93.4693 166.96 93.512C167.024 93.5333 167.163 93.544 167.376 93.544H169.712C170.288 93.5227 171.163 93.512 172.336 93.512C172.571 93.512 172.763 93.5867 172.912 93.736C173.061 93.864 173.136 94.0027 173.136 94.152V100.264V100.328C173.136 100.499 173.051 100.637 172.88 100.744C172.688 100.829 172.464 100.883 172.208 100.904C171.931 100.968 171.493 101 170.896 101H166.256ZM178.48 101C178.373 101 178.213 100.989 178 100.968C177.787 100.925 177.531 100.893 177.232 100.872L176.56 100.712C176.453 100.691 176.368 100.669 176.304 100.648C176.261 100.605 176.251 100.573 176.272 100.552C176.272 99.9973 176.24 99.2613 176.176 98.344C176.176 98.024 176.165 97.7467 176.144 97.512C176.123 97.256 176.101 97.0427 176.08 96.872L176.016 95.496C176.016 95.1333 175.995 94.6747 175.952 94.12L175.92 93.128C175.92 92.3173 175.909 91.688 175.888 91.24C175.867 90.792 175.856 89.8533 175.856 88.424C175.856 87.08 175.867 85.6933 175.888 84.264C175.909 82.8347 175.973 81.48 176.08 80.2C176.08 79.9653 176.336 79.7733 176.848 79.624C177.168 79.5813 177.701 79.56 178.448 79.56C180.176 79.56 181.445 79.528 182.256 79.464C184.773 79.4213 186.672 79.4 187.952 79.4H189.36C191.109 79.4427 192.453 79.5067 193.392 79.592C193.733 79.592 193.979 79.9973 194.128 80.808C194.192 80.9573 194.267 81.3413 194.352 81.96C194.416 82.28 194.501 82.6747 194.608 83.144C194.629 83.272 194.629 83.4 194.608 83.528C194.608 83.6347 194.608 83.6987 194.608 83.72C194.587 83.9333 194.469 84.04 194.256 84.04C194.171 84.0187 194.043 84.008 193.872 84.008C192.976 84.008 191.877 84.0827 190.576 84.232L188.88 84.36C188.176 84.4453 187.621 84.4987 187.216 84.52C187.152 84.52 187.067 84.648 186.96 84.904C186.875 85.1813 186.779 85.8213 186.672 86.824L186.608 87.624C186.608 87.9013 186.64 88.0827 186.704 88.168C186.768 88.232 186.907 88.264 187.12 88.264H189.968C190.8 88.264 191.749 88.3173 192.816 88.424H193.2C193.477 88.488 193.648 88.5947 193.712 88.744C193.797 88.872 193.851 89.0107 193.872 89.16L194 92.008V92.104C194 92.4667 193.616 92.68 192.848 92.744C192.4 92.8507 191.547 92.904 190.288 92.904C189.2 92.904 188.496 92.8933 188.176 92.872C187.557 92.872 187.184 92.8827 187.056 92.904C186.821 92.968 186.672 93.096 186.608 93.288C186.544 93.4587 186.512 93.7573 186.512 94.184C186.512 94.4613 186.491 94.856 186.448 95.368C186.427 95.624 186.416 96.0293 186.416 96.584C187.803 96.584 188.827 96.5627 189.488 96.52C190.213 96.456 191.237 96.424 192.56 96.424C192.645 96.424 192.731 96.4987 192.816 96.648C192.923 96.8613 193.093 97.3413 193.328 98.088C193.456 98.5147 193.584 99.048 193.712 99.688C193.755 99.8373 193.776 99.9973 193.776 100.168C193.776 100.616 193.563 100.84 193.136 100.84C192.581 100.84 191.835 100.861 190.896 100.904C190.405 100.947 189.637 100.968 188.592 100.968C186.352 100.968 184.667 100.979 183.536 101H178.48ZM198.524 101.032C198.246 101.032 198.054 100.819 197.948 100.392C197.926 100.328 197.916 100.221 197.916 100.072C197.916 99.8587 197.958 99.5387 198.044 99.112C198.086 98.8347 198.118 98.6213 198.14 98.472C198.182 98.3013 198.214 98.1733 198.236 98.088C198.876 95.08 199.505 92.4347 200.124 90.152L202.364 80.04C202.364 79.9973 202.396 79.9333 202.46 79.848C202.524 79.7627 202.598 79.7093 202.684 79.688H202.844C202.844 79.7093 202.876 79.72 202.94 79.72C203.196 79.72 203.484 79.688 203.804 79.624C204.124 79.56 204.412 79.528 204.668 79.528C205.137 79.528 205.574 79.56 205.98 79.624C206.172 79.624 206.385 79.6347 206.62 79.656C206.854 79.6773 207.1 79.688 207.356 79.688C207.441 79.688 207.537 79.6667 207.644 79.624H208.22H208.956L209.724 79.592C209.873 79.5707 210.054 79.56 210.268 79.56C210.438 79.56 210.524 79.5493 210.524 79.528H211.036H212.124H213.468C214.662 79.528 215.452 79.5493 215.836 79.592C215.9 79.592 215.985 79.6027 216.092 79.624C216.22 79.624 216.294 79.6453 216.316 79.688C216.465 79.688 216.614 79.6773 216.764 79.656C216.913 79.6347 217.052 79.624 217.18 79.624C217.478 79.56 217.766 79.528 218.044 79.528C218.172 79.528 218.3 79.56 218.428 79.624C218.556 79.688 218.694 79.72 218.844 79.72L219.004 79.688H219.1C219.164 79.7307 219.228 79.7947 219.292 79.88C219.377 79.944 219.42 79.9973 219.42 80.04L221.66 90.152C222.342 92.648 222.961 95.2933 223.516 98.088C223.516 98.216 223.558 98.3547 223.644 98.504C223.665 98.6533 223.697 98.856 223.74 99.112C223.782 99.368 223.804 99.5813 223.804 99.752C223.825 99.8373 223.836 99.9547 223.836 100.104C223.836 100.403 223.772 100.648 223.644 100.84C223.558 100.968 223.43 101.032 223.26 101.032H222.844C222.524 101.032 222.278 101.021 222.108 101H221.276H220.476H219.836C219.665 101 219.58 100.989 219.58 100.968H217.564V100.904C217.478 100.861 217.372 100.84 217.244 100.84C217.244 100.84 217.233 100.851 217.212 100.872C217.212 100.872 217.201 100.883 217.18 100.904C217.18 100.947 217.158 100.968 217.116 100.968H217.02H216.764C216.657 100.925 216.444 100.904 216.124 100.904C215.484 100.861 214.982 100.84 214.62 100.84C214.492 100.648 214.353 100.264 214.204 99.688C214.076 99.112 213.937 98.472 213.788 97.768C213.745 97.4267 213.702 97.192 213.66 97.064C213.212 97.1493 212.625 97.192 211.9 97.192H210.908H209.98L209.756 98.216C209.478 99.624 209.254 100.499 209.084 100.84C208.998 100.84 208.892 100.861 208.764 100.904C208.721 100.925 208.678 100.947 208.636 100.968C208.614 100.968 208.604 100.968 208.604 100.968H208.476C208.348 100.968 208.252 100.947 208.188 100.904C208.145 100.861 208.092 100.84 208.028 100.84L206.588 100.904H206.076H205.595C205.51 100.947 205.404 100.968 205.276 100.968H205.148H202.204H201.916C201.681 100.989 201.201 101 200.476 101H199.644C199.473 101.021 199.228 101.032 198.908 101.032H198.524ZM213.308 93.192C213.158 92.1467 213.083 91.624 213.083 91.624C213.02 91.3253 212.913 90.76 212.764 89.928C212.721 89.7147 212.614 89.1387 212.444 88.2C212.273 87.176 212.188 86.664 212.188 86.664C212.124 86.2373 212.06 85.864 211.996 85.544L211.964 85.128C211.9 85.0213 211.868 84.9253 211.868 84.84L211.836 84.648C211.814 84.6907 211.804 84.7547 211.804 84.84C211.804 84.9253 211.782 84.9787 211.74 85V85.128L211.676 85.544C211.654 85.6933 211.622 85.864 211.58 86.056C211.558 86.2267 211.526 86.4187 211.484 86.632L211.324 87.528C211.089 88.872 210.95 89.6507 210.908 89.864C210.886 90.0987 210.833 90.4507 210.748 90.92C210.705 91.0693 210.662 91.2933 210.62 91.592L210.364 93.064H211.996L212.22 93H212.284C212.54 93 212.732 93.0213 212.86 93.064C212.945 93.064 213.02 93.0853 213.083 93.128C213.169 93.1493 213.244 93.1707 213.308 93.192ZM244.603 102.088C244.517 102.088 244.443 102.077 244.378 102.056C244.059 101.864 243.792 101.651 243.579 101.416C243.515 101.309 243.472 101.256 243.451 101.256C243.429 101.213 243.397 101.192 243.355 101.192L243.291 101.16C243.205 101.075 243.163 101.032 243.163 101.032L240.443 97C240.315 96.7227 240.133 96.424 239.899 96.104C239.749 95.9547 239.621 95.7947 239.515 95.624C239.429 95.496 239.344 95.432 239.259 95.432C239.195 95.432 239.141 95.464 239.099 95.528C239.077 95.592 239.056 95.6773 239.035 95.784C238.971 96.36 238.939 97.1387 238.939 98.12C238.939 99.0587 238.885 99.816 238.779 100.392C238.715 100.669 238.619 100.808 238.491 100.808H238.299C238.256 100.787 238.213 100.776 238.171 100.776C238.149 100.755 238.139 100.744 238.139 100.744C237.392 100.808 236.272 100.883 234.779 100.968C233.328 101.053 232.219 101.096 231.451 101.096C231.237 101.096 231.067 101.075 230.939 101.032H230.235H229.659H229.371L228.219 100.648L228.123 100.392C228.123 100.371 228.112 100.328 228.091 100.264C228.091 100.2 228.091 100.115 228.091 100.008C228.091 99.88 228.069 99.6453 228.027 99.304C227.92 98.0027 227.877 97.4907 227.899 97.768C227.856 97.2133 227.781 96.2533 227.674 94.888L227.579 93.704C227.579 93.32 227.568 92.9787 227.547 92.68C227.525 92.3813 227.504 92.1253 227.483 91.912L227.419 91.208C227.355 90.3333 227.323 89.512 227.323 88.744C227.323 88.7227 227.323 88.6907 227.323 88.648C227.344 88.6053 227.355 88.52 227.355 88.392C227.397 88.264 227.419 88.0613 227.419 87.784L227.451 87.208L227.483 86.824C227.483 86.376 227.461 85.7253 227.419 84.872C227.333 84.3387 227.291 83.656 227.291 82.824C227.291 81.6293 227.365 80.7547 227.515 80.2C227.707 79.432 228.027 79.048 228.475 79.048C230.885 79.048 233.339 79.08 235.835 79.144C236.389 79.144 237.221 79.1653 238.331 79.208L239.579 79.24C241.285 79.2827 242.469 79.304 243.131 79.304C245.883 79.432 247.963 80.1253 249.371 81.384C250.011 81.9173 250.48 82.5573 250.779 83.304C251.099 84.0507 251.259 84.8507 251.259 85.704C251.259 86.6853 251.077 87.592 250.715 88.424C250.416 89.0853 249.989 89.6933 249.435 90.248C248.901 90.7813 248.293 91.208 247.611 91.528C247.739 91.592 247.909 91.7307 248.123 91.944C248.208 92.0507 248.357 92.1893 248.571 92.36L249.019 92.68C249.083 92.7867 249.157 92.8933 249.243 93C249.328 93.0853 249.413 93.1813 249.499 93.288L251.003 95.144C251.685 96.0187 252.123 96.6587 252.315 97.064C252.464 97.3413 252.539 97.5547 252.539 97.704C252.539 97.9173 252.453 98.1093 252.283 98.28C252.112 98.4507 251.856 98.664 251.515 98.92C251.259 99.112 250.96 99.2933 250.619 99.464C250.299 99.6347 250.053 99.7947 249.883 99.944L248.699 100.584C248.272 100.819 247.813 101.021 247.323 101.192C247.301 101.192 247.269 101.203 247.227 101.224C247.205 101.245 247.163 101.267 247.099 101.288C246.971 101.352 246.619 101.469 246.043 101.64C245.936 101.704 245.755 101.757 245.499 101.8C245.435 101.843 245.36 101.875 245.275 101.896C245.189 101.917 245.125 101.928 245.083 101.928H244.923C244.901 102.035 244.859 102.088 244.795 102.088H244.699H244.603ZM239.355 90.792C240.016 90.792 240.539 90.4613 240.923 89.8C241.285 89.2027 241.488 88.52 241.531 87.752C241.573 87.304 241.595 86.7707 241.595 86.152V85.8C241.595 85.3093 241.509 84.7973 241.339 84.264C241.168 83.5813 240.816 83.0907 240.283 82.792C240.048 82.6 239.739 82.504 239.355 82.504C239.248 82.504 239.163 82.632 239.099 82.888C238.907 83.3573 238.8 84.104 238.779 85.128C238.693 85.5547 238.651 86.056 238.651 86.632L238.619 87.592C238.576 88.8293 238.555 89.8533 238.555 90.664C238.555 90.6853 238.565 90.7067 238.587 90.728C238.608 90.7493 238.629 90.76 238.651 90.76L238.875 90.792H239.355ZM259.452 101.096C259.239 101.096 259.057 101.075 258.908 101.032H258.268H257.756H257.468L256.028 100.68L255.932 100.424C255.911 100.424 255.9 100.307 255.9 100.072C255.857 99.432 255.836 98.696 255.836 97.864C255.836 97.2667 255.815 96.7867 255.772 96.424C255.772 95.8267 255.761 95.3787 255.74 95.08V93.96C255.633 92.9787 255.569 91.9013 255.548 90.728C255.527 89.5547 255.516 88.4133 255.516 87.304L255.58 84.04C255.601 83.6773 255.612 83.1227 255.612 82.376C255.612 81.6293 255.601 81.0747 255.58 80.712C255.516 80.2213 255.655 79.8587 255.996 79.624C256.209 79.5173 256.583 79.464 257.116 79.464C257.905 79.464 258.919 79.4427 260.156 79.4L260.86 79.336C262.14 79.2507 262.94 79.208 263.26 79.208C263.559 79.208 263.772 79.2187 263.9 79.24C264.199 79.2613 264.401 79.304 264.508 79.368C264.615 79.432 264.711 79.5387 264.796 79.688C264.903 79.8373 264.977 79.9547 265.02 80.04C265.276 80.3813 265.532 80.744 265.788 81.128C266.172 81.704 266.481 82.152 266.716 82.472L268.828 85.704L269.852 87.24C269.852 86.6853 269.873 86.248 269.916 85.928V82.952L270.012 80.68C270.033 80.5093 270.055 80.392 270.076 80.328C270.097 80.264 270.129 80.2213 270.172 80.2C270.215 80.1573 270.247 80.1253 270.268 80.104C270.524 79.8907 270.78 79.7307 271.036 79.624C271.249 79.5813 271.42 79.56 271.548 79.56H273.372H273.756C273.927 79.5813 274.225 79.592 274.652 79.592C275.121 79.592 275.495 79.6027 275.772 79.624H276.86H277.756H278.14C278.695 79.624 279.068 79.7093 279.26 79.88C279.495 80.0507 279.612 80.424 279.612 81L279.58 81.32L279.548 81.832C279.527 81.96 279.516 82.1307 279.516 82.344V82.728V82.984L279.58 83.304V84.328C279.559 84.6907 279.548 85.3093 279.548 86.184V88.552C279.527 89.1067 279.516 89.8853 279.516 90.888V92.744V93.832V98.888L279.388 100.104C279.303 100.595 279.132 100.893 278.876 101L278.332 101.032L277.788 101H276.348H274.46H272.508H272.028C271.601 101.043 271.185 100.989 270.78 100.84C270.588 100.755 270.375 100.616 270.14 100.424L266.876 95.848C266.876 95.8267 266.641 95.432 266.172 94.664C266.001 94.408 265.841 94.184 265.692 93.992C265.649 93.9067 265.596 93.8427 265.532 93.8C265.489 93.736 265.457 93.704 265.436 93.704C265.244 93.704 265.148 93.7893 265.148 93.96V94.664C265.127 94.8773 265.116 95.2293 265.116 95.72V96.968V98.184C265.073 98.44 265.052 98.76 265.052 99.144V99.784V100.264L265.084 100.424C265.084 100.595 264.999 100.701 264.828 100.744C264.721 100.829 264.551 100.851 264.316 100.808C263.591 100.851 263.015 100.893 262.588 100.936C262.332 100.957 261.884 100.989 261.244 101.032C260.604 101.075 260.007 101.096 259.452 101.096Z" fill="#2B2D42"/>
</svg>
