<svg width="32" height="32" viewBox="0 0 32 32" fill="none" xmlns="http://www.w3.org/2000/svg">
<path d="M6.66667 22.6488C6.23033 22.6264 5.91807 22.5763 5.64617 22.4638C4.99277 22.1931 4.47364 21.6739 4.20299 21.0206C4 20.5304 4 19.9092 4 18.6667V9.60004C4 8.10657 4 7.35983 4.29065 6.7894C4.54631 6.28763 4.95425 5.87968 5.45603 5.62403C6.02645 5.33337 6.7732 5.33337 8.26667 5.33337H23.7333C25.2268 5.33337 25.9736 5.33337 26.544 5.62403C27.0457 5.87968 27.4537 6.28763 27.7093 6.7894C28 7.35983 28 8.10657 28 9.60004V18.6667C28 19.9092 28 20.5304 27.7971 21.0206C27.5264 21.6739 27.0072 22.1931 26.3539 22.4638C26.082 22.5763 25.7697 22.6264 25.3333 22.6488M12.1877 26.6667H19.8124C20.5649 26.6667 20.9413 26.6667 21.1156 26.5C21.2668 26.3555 21.3471 26.1386 21.3315 25.9167C21.3135 25.6608 21.0473 25.363 20.5151 24.7671L16.7028 20.4988C16.4568 20.2234 16.3337 20.0856 16.192 20.034C16.0672 19.9887 15.9328 19.9887 15.808 20.034C15.6663 20.0856 15.5432 20.2234 15.2972 20.4988L11.4849 24.7671C10.9527 25.363 10.6866 25.6608 10.6686 25.9167C10.653 26.1386 10.7332 26.3555 10.8844 26.5C11.0587 26.6667 11.435 26.6667 12.1877 26.6667Z" stroke="#2B2D42" stroke-linecap="round" stroke-linejoin="round"/>
</svg>
