<svg width="32" height="32" viewBox="0 0 32 32" fill="none" xmlns="http://www.w3.org/2000/svg">
<path d="M15.4865 13.5044C15.1008 13.8997 15.1087 14.5329 15.504 14.9185C15.8993 15.3042 16.5324 15.2964 16.9181 14.901L15.4865 13.5044ZM16.4316 14.0068L17.01 14.8225L17.0121 14.821L16.4316 14.0068ZM22.4583 9.71071L23.0388 10.525C23.05 10.517 23.0609 10.5088 23.0719 10.5004L22.4583 9.71071ZM25.3343 10.8627H26.3343C26.3343 10.8132 26.3307 10.7638 26.3233 10.7149L25.3343 10.8627ZM25.3343 19.8574L26.3233 20.0052C26.3307 19.9562 26.3343 19.9069 26.3343 19.8574H25.3343ZM22.4583 21.0094L21.8436 21.7981L21.8448 21.799L22.4583 21.0094ZM16.4303 16.3108L17.0451 15.522C17.0332 15.5128 17.0211 15.5037 17.0087 15.4949L16.4303 16.3108ZM16.9167 15.4164C16.5311 15.021 15.8979 15.0133 15.5027 15.399C15.1073 15.7846 15.0996 16.4178 15.4852 16.8132L16.9167 15.4164ZM15.2009 14.2028C15.2009 14.755 15.6487 15.2028 16.2009 15.2028C16.7532 15.2028 17.2009 14.755 17.2009 14.2028H15.2009ZM16.2009 10.8627H17.2009C17.2009 10.8132 17.1973 10.7638 17.19 10.7149L16.2009 10.8627ZM13.325 9.71071L13.9053 10.5251C13.9165 10.5171 13.9276 10.5088 13.9385 10.5004L13.325 9.71071ZM7.29696 14.0068L7.83628 14.8488C7.85019 14.84 7.86388 14.8306 7.87733 14.821L7.29696 14.0068ZM7.29696 16.3108L7.91165 15.522C7.88736 15.503 7.86221 15.4852 7.83628 15.4686L7.29696 16.3108ZM13.3263 21.0094L12.7116 21.7981L12.7128 21.799L13.3263 21.0094ZM16.2023 19.8574L17.1913 20.0052C17.1987 19.9562 17.2023 19.9069 17.2023 19.8574H16.2023ZM17.2023 16.1148C17.2023 15.5625 16.7545 15.1148 16.2023 15.1148C15.65 15.1148 15.2023 15.5625 15.2023 16.1148H17.2023ZM17.2023 14.2028C17.2023 13.6505 16.7545 13.2027 16.2023 13.2027C15.65 13.2027 15.2023 13.6505 15.2023 14.2028H17.2023ZM15.2023 16.1148C15.2023 16.667 15.65 17.1148 16.2023 17.1148C16.7545 17.1148 17.2023 16.667 17.2023 16.1148H15.2023ZM16.9181 14.901C16.9463 14.8721 16.9772 14.8458 17.01 14.8225L15.8533 13.1909C15.7219 13.2841 15.5991 13.389 15.4865 13.5044L16.9181 14.901ZM17.0121 14.821L23.0388 10.525L21.8779 8.89642L15.8512 13.1924L17.0121 14.821ZM23.0719 10.5004C23.2948 10.3272 23.5928 10.2853 23.8548 10.3902L24.5985 8.53366C23.6769 8.16453 22.6288 8.31198 21.8448 8.92102L23.0719 10.5004ZM23.8548 10.3902C24.1169 10.4952 24.3036 10.7313 24.3453 11.0105L26.3233 10.7149C26.1767 9.7331 25.52 8.90279 24.5985 8.53366L23.8548 10.3902ZM24.3343 10.8627V19.8574H26.3343V10.8627H24.3343ZM24.3453 19.7096C24.3036 19.9888 24.1169 20.2249 23.8548 20.3298L24.5985 22.1865C25.52 21.8173 26.1767 20.987 26.3233 20.0052L24.3453 19.7096ZM23.8548 20.3298C23.5928 20.4348 23.2948 20.3929 23.0719 20.2197L21.8448 21.799C22.6288 22.4081 23.6769 22.5556 24.5985 22.1865L23.8548 20.3298ZM23.0731 20.2206L17.0451 15.522L15.8156 17.0994L21.8436 21.7981L23.0731 20.2206ZM17.0087 15.4949C16.9757 15.4716 16.9449 15.4453 16.9167 15.4164L15.4852 16.8132C15.5977 16.9284 15.7205 17.0333 15.852 17.1265L17.0087 15.4949ZM17.2009 14.2028V10.8627H15.2009V14.2028H17.2009ZM17.19 10.7149C17.0433 9.7331 16.3867 8.90279 15.4652 8.53366L14.7215 10.3902C14.9836 10.4952 15.1703 10.7313 15.212 11.0105L17.19 10.7149ZM15.4652 8.53366C14.5436 8.16453 13.4955 8.31198 12.7115 8.92102L13.9385 10.5004C14.1615 10.3272 14.4595 10.2853 14.7215 10.3902L15.4652 8.53366ZM12.7446 8.89635L6.7166 13.1924L7.87733 14.821L13.9053 10.5251L12.7446 8.89635ZM6.75765 13.1646C6.07791 13.6 5.66675 14.3516 5.66675 15.1588H7.66675C7.66675 15.0333 7.73064 14.9165 7.83628 14.8488L6.75765 13.1646ZM5.66675 15.1588C5.66675 15.966 6.07791 16.7176 6.75765 17.1528L7.83628 15.4686C7.73064 15.401 7.66675 15.2842 7.66675 15.1588H5.66675ZM6.68227 17.0994L12.7116 21.7981L13.9409 20.2206L7.91165 15.522L6.68227 17.0994ZM12.7128 21.799C13.4968 22.4081 14.5449 22.5556 15.4665 22.1865L14.7228 20.3298C14.4608 20.4348 14.1628 20.3929 13.9399 20.2197L12.7128 21.799ZM15.4665 22.1865C16.388 21.8173 17.0447 20.987 17.1913 20.0052L15.2133 19.7096C15.1716 19.9888 14.9849 20.2249 14.7228 20.3298L15.4665 22.1865ZM17.2023 19.8574V16.1148H15.2023V19.8574H17.2023ZM15.2023 14.2028V16.1148H17.2023V14.2028H15.2023Z" fill="#2B2D42"/>
</svg>
