<svg width="32" height="32" viewBox="0 0 32 32" fill="none" xmlns="http://www.w3.org/2000/svg">
<path d="M30.6666 16C30.6666 24.1002 24.1001 30.6667 16 30.6667C7.89981 30.6667 1.33331 24.1002 1.33331 16C1.33331 7.89987 7.89981 1.33337 16 1.33337C24.1001 1.33337 30.6666 7.89987 30.6666 16ZM4.00909 16C4.00909 22.6224 9.37759 27.991 16 27.991C22.6224 27.991 27.9909 22.6224 27.9909 16C27.9909 9.37765 22.6224 4.00915 16 4.00915C9.37759 4.00915 4.00909 9.37765 4.00909 16Z" fill="#2B2D42"/>
<path d="M16 6.66675C15.2636 6.66675 14.6666 7.26369 14.6666 8.00008V16.6223C14.6666 16.6223 14.6666 16.9699 14.8356 17.2314C14.9486 17.4531 15.1249 17.6458 15.3565 17.7795L21.5162 21.3359C22.154 21.7041 22.9694 21.4855 23.3376 20.8478C23.7057 20.2101 23.4873 19.3946 22.8496 19.0265L17.3333 15.8417V8.00008C17.3333 7.26371 16.7364 6.66675 16 6.66675Z" fill="#2B2D42"/>
</svg>
