<svg width="32" height="32" viewBox="0 0 32 32" fill="none" xmlns="http://www.w3.org/2000/svg">
<path d="M15.083 14.9011C15.4686 15.2965 16.1018 15.3043 16.497 14.9186C16.8923 14.533 16.9002 13.8998 16.5144 13.5046L15.083 14.9011ZM15.5694 14.0069L14.989 14.8211L14.9911 14.8227L15.5694 14.0069ZM9.54269 9.71084L8.92918 10.5005C8.94003 10.509 8.95105 10.5172 8.96223 10.5251L9.54269 9.71084ZM6.66669 10.8628L5.67767 10.7151C5.67035 10.764 5.66669 10.8134 5.66669 10.8628H6.66669ZM6.66669 19.8575H5.66669C5.66669 19.907 5.67035 19.9563 5.67767 20.0052L6.66669 19.8575ZM9.54269 21.0095L10.1562 21.7992L10.1575 21.7982L9.54269 21.0095ZM15.5707 16.3109L14.9923 15.4951C14.98 15.5038 14.9679 15.5128 14.9559 15.5222L15.5707 16.3109ZM16.5158 16.8133C16.9015 16.4179 16.8936 15.7849 16.4984 15.3991C16.1031 15.0134 15.47 15.0211 15.0843 15.4165L16.5158 16.8133ZM14.8 14.2028C14.8 14.7551 15.2478 15.2028 15.8 15.2028C16.3523 15.2028 16.8 14.7551 16.8 14.2028H14.8ZM15.8 10.8628L14.8111 10.7145C14.8038 10.7636 14.8 10.8132 14.8 10.8628H15.8ZM18.6747 9.71084L18.0619 10.501C18.0726 10.5093 18.0834 10.5174 18.0943 10.5252L18.6747 9.71084ZM24.7027 14.0069L24.1223 14.8213C24.1358 14.8307 24.1495 14.8401 24.1634 14.849L24.7027 14.0069ZM24.7027 16.3109L24.1634 15.4687C24.1374 15.4854 24.1123 15.5031 24.0879 15.5222L24.7027 16.3109ZM18.6747 21.0095L19.2882 21.7992L19.2895 21.7982L18.6747 21.0095ZM15.7987 19.8575H14.7987C14.7987 19.907 14.8024 19.9563 14.8096 20.0052L15.7987 19.8575ZM16.7987 16.1149C16.7987 15.5626 16.351 15.1149 15.7987 15.1149C15.2464 15.1149 14.7987 15.5626 14.7987 16.1149H16.7987ZM16.7987 14.2028C16.7987 13.6506 16.351 13.2028 15.7987 13.2028C15.2464 13.2028 14.7987 13.6506 14.7987 14.2028H16.7987ZM14.7987 16.1149C14.7987 16.6671 15.2464 17.1149 15.7987 17.1149C16.351 17.1149 16.7987 16.6671 16.7987 16.1149H14.7987ZM16.5144 13.5046C16.4019 13.3891 16.2791 13.2842 16.1476 13.191L14.9911 14.8227C15.024 14.846 15.0547 14.8723 15.083 14.9011L16.5144 13.5046ZM16.1498 13.1925L10.1231 8.89654L8.96223 10.5251L14.989 14.8211L16.1498 13.1925ZM10.1562 8.92114C9.37225 8.3121 8.32405 8.16465 7.40249 8.53378L8.14617 10.3904C8.40821 10.2854 8.70626 10.3273 8.92918 10.5005L10.1562 8.92114ZM7.40249 8.53378C6.48094 8.90292 5.82438 9.73322 5.67767 10.7151L7.6557 11.0106C7.69742 10.7314 7.88411 10.4953 8.14617 10.3904L7.40249 8.53378ZM5.66669 10.8628V19.8575H7.66669V10.8628H5.66669ZM5.67767 20.0052C5.82438 20.9871 6.48094 21.8174 7.40249 22.1866L8.14617 20.3299C7.88411 20.225 7.69742 19.9888 7.6557 19.7098L5.67767 20.0052ZM7.40249 22.1866C8.32405 22.5557 9.37225 22.4082 10.1562 21.7992L8.92918 20.2198C8.70626 20.393 8.40821 20.435 8.14617 20.3299L7.40249 22.1866ZM10.1575 21.7982L16.1855 17.0995L14.9559 15.5222L8.92791 20.2208L10.1575 21.7982ZM16.1491 17.1266C16.2806 17.0334 16.4032 16.9286 16.5158 16.8133L15.0843 15.4165C15.056 15.4454 15.0254 15.4717 14.9923 15.4951L16.1491 17.1266ZM16.8 14.2028V10.8628H14.8V14.2028H16.8ZM16.789 11.0111C16.8308 10.7322 17.0174 10.4963 17.2792 10.3914L16.5352 8.53488C15.6144 8.9039 14.9582 9.73345 14.8111 10.7145L16.789 11.0111ZM17.2792 10.3914C17.5411 10.2864 17.839 10.3282 18.0619 10.501L19.2875 8.92064C18.5036 8.31266 17.4562 8.16585 16.5352 8.53488L17.2792 10.3914ZM18.0943 10.5252L24.1223 14.8213L25.2831 13.1925L19.2551 8.89649L18.0943 10.5252ZM24.1634 14.849C24.269 14.9166 24.333 15.0334 24.333 15.1588H26.333C26.333 14.3516 25.9218 13.6001 25.242 13.1647L24.1634 14.849ZM24.333 15.1588C24.333 15.2843 24.269 15.4011 24.1634 15.4687L25.242 17.153C25.9218 16.7177 26.333 15.9661 26.333 15.1588H24.333ZM24.0879 15.5222L18.0599 20.2208L19.2895 21.7982L25.3175 17.0995L24.0879 15.5222ZM18.0612 20.2198C17.8383 20.393 17.5402 20.435 17.2782 20.3299L16.5346 22.1866C17.456 22.5557 18.5043 22.4082 19.2882 21.7992L18.0612 20.2198ZM17.2782 20.3299C17.0162 20.225 16.8295 19.9888 16.7878 19.7098L14.8096 20.0052C14.9564 20.9871 15.613 21.8174 16.5346 22.1866L17.2782 20.3299ZM16.7987 19.8575V16.1149H14.7987V19.8575H16.7987ZM14.7987 14.2028V16.1149H16.7987V14.2028H14.7987Z" fill="#2B2D42"/>
</svg>
