<svg width="32" height="32" viewBox="0 0 32 32" fill="none" xmlns="http://www.w3.org/2000/svg">
<path d="M11.4825 24.8576V17.7792" stroke="#FFFFFF" stroke-width="1.5" stroke-linecap="round" stroke-linejoin="round"/>
<path d="M2.92138 16.2176C2.88959 15.6374 2.97644 15.0568 3.17662 14.5113C3.37679 13.9656 3.68606 13.4666 4.08558 13.0446C4.4851 12.6226 4.96646 12.2864 5.50024 12.0567C6.03404 11.827 6.60907 11.7086 7.19019 11.7086C7.77131 11.7086 8.34632 11.827 8.88011 12.0567C9.41391 12.2864 9.89527 12.6226 10.2948 13.0446C10.6943 13.4666 11.0036 13.9656 11.2038 14.5113C11.4039 15.0568 11.4908 15.6374 11.459 16.2176V23.424C11.4908 24.0042 11.4039 24.585 11.2038 25.1305C11.0036 25.6761 10.6943 26.175 10.2948 26.597C9.89527 27.019 9.41391 27.3552 8.88011 27.5849C8.34632 27.8145 7.77131 27.9331 7.19019 27.9331C6.60907 27.9331 6.03404 27.8145 5.50024 27.5849C4.96646 27.3552 4.4851 27.019 4.08558 26.597C3.68606 26.175 3.37679 25.6761 3.17662 25.1305C2.97644 24.585 2.88959 24.0042 2.92138 23.424V16.2176Z" stroke="#FFFFFF" stroke-width="1.5" stroke-linecap="round" stroke-linejoin="round"/>
<path d="M11.4826 23.424C11.4792 23.987 11.5868 24.5452 11.7991 25.0668C12.0115 25.5883 12.3246 26.0629 12.7204 26.4636C13.1161 26.8641 13.5869 27.1828 14.106 27.4013C14.6249 27.6199 15.1818 27.7342 15.745 27.7376H21.0186C22.2482 27.7367 23.4445 27.3369 24.4276 26.5984C25.4108 25.8598 26.128 24.8222 26.4714 23.6416L28.3914 17.1392C28.5442 16.7069 28.5916 16.2444 28.5298 15.7902C28.4678 15.3359 28.2984 14.903 28.0356 14.5275C27.7727 14.1519 27.4239 13.8444 27.0182 13.6308C26.6126 13.4172 26.1618 13.3035 25.7034 13.2992H18.6378V6.54075C18.6395 6.29533 18.5928 6.05204 18.5005 5.82466C18.4081 5.59728 18.2719 5.39032 18.0994 5.2156C17.9272 5.04086 17.7221 4.90177 17.4959 4.80629C17.2699 4.71083 17.0272 4.66086 16.7818 4.65918C16.378 4.66101 15.9858 4.79449 15.6648 5.03934C15.3436 5.28419 15.1112 5.62706 15.0026 6.01598L11.4826 17.7408" stroke="#FFFFFF" stroke-width="1.5" stroke-linecap="round" stroke-linejoin="round"/>
</svg>
