<svg width="32" height="32" viewBox="0 0 32 32" fill="none" xmlns="http://www.w3.org/2000/svg">
<path d="M15.6173 9.53307C16.1695 9.51941 16.606 9.06077 16.5924 8.50865C16.5787 7.95655 16.1201 7.52003 15.568 7.53368L15.6173 9.53307ZM8.40887 16.2574H9.40887C9.40887 16.2499 9.40879 16.2424 9.40861 16.2348L8.40887 16.2574ZM8.40887 19.3467L8.461 20.3454C8.99231 20.3176 9.40887 19.8787 9.40887 19.3467H8.40887ZM8.40887 23.4667L8.35673 24.4654C8.37409 24.4663 8.39148 24.4667 8.40887 24.4667V23.4667ZM12.5598 24.4667C13.1121 24.4667 13.5597 24.019 13.5597 23.4667C13.5597 22.9144 13.1121 22.4667 12.5598 22.4667V24.4667ZM14.5927 8.53337C14.5927 9.08565 15.0404 9.53337 15.5927 9.53337C16.1449 9.53337 16.5927 9.08565 16.5927 8.53337H14.5927ZM16.5927 5.33337C16.5927 4.78109 16.1449 4.33337 15.5927 4.33337C15.0404 4.33337 14.5927 4.78109 14.5927 5.33337H16.5927ZM15.6173 7.53368C15.0653 7.52003 14.6067 7.95655 14.5929 8.50865C14.5793 9.06077 15.0159 9.51941 15.568 9.53307L15.6173 7.53368ZM22.7765 16.2574L21.7767 16.2348C21.7765 16.2424 21.7765 16.2499 21.7765 16.2574H22.7765ZM22.7765 19.3467H21.7765C21.7765 19.8787 22.1931 20.3176 22.7244 20.3454L22.7765 19.3467ZM22.7765 23.4667V24.4667C22.7939 24.4667 22.8112 24.4663 22.8287 24.4654L22.7765 23.4667ZM18.6256 22.4667C18.0733 22.4667 17.6256 22.9144 17.6256 23.4667C17.6256 24.019 18.0733 24.4667 18.6256 24.4667V22.4667ZM13.5584 23.4703C13.5604 22.918 13.1143 22.4687 12.562 22.4667C12.0098 22.4647 11.5605 22.9108 11.5585 23.4631L13.5584 23.4703ZM13.4464 25.7334L14.1763 25.0498L14.1745 25.048L13.4464 25.7334ZM17.7364 25.7334L17.0081 25.048L17.0065 25.0498L17.7364 25.7334ZM19.6243 23.4631C19.6223 22.9108 19.1729 22.4647 18.6207 22.4667C18.0684 22.4687 17.6223 22.918 17.6243 23.4703L19.6243 23.4631ZM12.5572 22.4667C12.0049 22.4667 11.5572 22.9144 11.5572 23.4667C11.5572 24.019 12.0049 24.4667 12.5572 24.4667V22.4667ZM18.6256 24.4667C19.1779 24.4667 19.6256 24.019 19.6256 23.4667C19.6256 22.9144 19.1779 22.4667 18.6256 22.4667V24.4667ZM15.568 7.53368C10.9307 7.64833 7.30353 11.5858 7.40912 16.2799L9.40861 16.2348C9.32675 12.5956 12.1298 9.61929 15.6173 9.53307L15.568 7.53368ZM7.40887 16.2574V19.3467H9.40887V16.2574H7.40887ZM8.35673 18.348C6.734 18.4328 5.5 19.7984 5.5 21.4067H7.5C7.5 20.8182 7.94459 20.3723 8.461 20.3454L8.35673 18.348ZM5.5 21.4067C5.5 23.015 6.734 24.3806 8.35673 24.4654L8.461 22.468C7.94457 22.4411 7.5 21.9952 7.5 21.4067H5.5ZM8.40887 24.4667H12.5598V22.4667H8.40887V24.4667ZM16.5927 8.53337V5.33337H14.5927V8.53337H16.5927ZM15.568 9.53307C19.0556 9.61929 21.8585 12.5956 21.7767 16.2348L23.7763 16.2799C23.8819 11.5858 20.2547 7.64833 15.6173 7.53368L15.568 9.53307ZM21.7765 16.2574V19.3467H23.7765V16.2574H21.7765ZM22.7244 20.3454C23.2408 20.3723 23.6853 20.8182 23.6853 21.4067H25.6853C25.6853 19.7984 24.4513 18.4328 22.8287 18.348L22.7244 20.3454ZM23.6853 21.4067C23.6853 21.9952 23.2408 22.4411 22.7244 22.468L22.8287 24.4654C24.4513 24.3806 25.6853 23.015 25.6853 21.4067H23.6853ZM22.7765 22.4667H18.6256V24.4667H22.7765V22.4667ZM11.5585 23.4631C11.5546 24.561 11.968 25.6216 12.7181 26.4187L14.1745 25.048C13.78 24.6287 13.5564 24.0631 13.5584 23.4703L11.5585 23.4631ZM12.7165 26.417C13.4636 27.2146 14.5011 27.6706 15.5913 27.6706V25.6706C15.0625 25.6706 14.5509 25.4498 14.1763 25.0498L12.7165 26.417ZM15.5913 27.6706C16.6817 27.6706 17.7192 27.2146 18.4663 26.417L17.0065 25.0498C16.6319 25.4498 16.1201 25.6706 15.5913 25.6706V27.6706ZM18.4645 26.4187C19.2148 25.6216 19.6281 24.561 19.6243 23.4631L17.6243 23.4703C17.6264 24.0631 17.4028 24.6287 17.0081 25.048L18.4645 26.4187ZM12.5572 24.4667H18.6256V22.4667H12.5572V24.4667Z" fill="#2B2D42"/>
</svg>
