<svg width="32" height="32" viewBox="0 0 32 32" fill="none" xmlns="http://www.w3.org/2000/svg">
<path d="M16 20C18.2091 20 20 18.2091 20 16C20 13.7909 18.2091 12 16 12C13.7909 12 12 13.7909 12 16C12 18.2091 13.7909 20 16 20Z" stroke="#2B2D42" stroke-width="2"/>
<path d="M18.3539 2.86961C17.8637 2.66663 17.2425 2.66663 16 2.66663C14.7575 2.66663 14.1363 2.66663 13.6461 2.86961C12.9928 3.14027 12.4736 3.6594 12.203 4.3128C12.0794 4.61108 12.0311 4.95796 12.0122 5.46395C11.9844 6.20753 11.603 6.89581 10.9586 7.26787C10.3142 7.63991 9.52746 7.62601 8.86959 7.27831C8.42194 7.04169 8.09735 6.91012 7.77726 6.86799C7.07606 6.77567 6.36691 6.96568 5.80582 7.39623C5.38499 7.71913 5.07437 8.25716 4.45311 9.3332C3.83186 10.4093 3.52123 10.9473 3.45199 11.4732C3.35969 12.1744 3.5497 12.8835 3.98025 13.4446C4.17675 13.7008 4.45294 13.916 4.88159 14.1853C5.51174 14.5813 5.91719 15.2558 5.91715 16C5.91711 16.7441 5.51167 17.4185 4.88158 17.8144C4.45287 18.0838 4.17665 18.2992 3.98011 18.5553C3.54957 19.1164 3.35955 19.8254 3.45187 20.5266C3.5211 21.0525 3.83173 21.5906 4.45298 22.6666C5.07425 23.7426 5.38487 24.2808 5.80569 24.6036C6.36678 25.0341 7.07593 25.2241 7.77713 25.1318C8.09719 25.0897 8.42177 24.9581 8.86939 24.7216C9.5273 24.3738 10.3141 24.36 10.9585 24.732C11.603 25.1041 11.9844 25.7924 12.0122 26.5361C12.0311 27.042 12.0794 27.3889 12.203 27.6872C12.4736 28.3405 12.9928 28.8597 13.6461 29.1304C14.1363 29.3333 14.7575 29.3333 16 29.3333C17.2425 29.3333 17.8637 29.3333 18.3539 29.1304C19.0072 28.8597 19.5264 28.3405 19.7969 27.6872C19.9205 27.3889 19.9689 27.042 19.9879 26.536C20.0156 25.7924 20.3969 25.1041 21.0413 24.732C21.6857 24.3598 22.4725 24.3738 23.1305 24.7216C23.5781 24.9581 23.9027 25.0896 24.2227 25.1317C24.9239 25.2241 25.6331 25.0341 26.1941 24.6036C26.6149 24.2806 26.9256 23.7426 27.5468 22.6665C28.1681 21.5905 28.4788 21.0525 28.548 20.5266C28.6403 19.8254 28.4503 19.1162 28.0197 18.5552C27.8232 18.299 27.5469 18.0837 27.1183 17.8144C26.4883 17.4185 26.0828 16.744 26.0828 15.9998C26.0828 15.2557 26.4883 14.5814 27.1183 14.1856C27.5471 13.9161 27.8233 13.7009 28.0199 13.4446C28.4504 12.8836 28.6404 12.1745 28.5481 11.4733C28.4789 10.9474 28.1683 10.4093 27.5469 9.33329C26.9257 8.25725 26.6151 7.71923 26.1943 7.39632C25.6332 6.96577 24.924 6.77576 24.2228 6.86808C23.9028 6.91021 23.5783 7.04177 23.1305 7.27836C22.4727 7.62608 21.6859 7.63999 21.0415 7.26791C20.3969 6.89584 20.0156 6.20751 19.9879 5.46388C19.9689 4.95793 19.9205 4.61107 19.7969 4.3128C19.5264 3.6594 19.0072 3.14027 18.3539 2.86961Z" stroke="#2B2D42" stroke-width="2"/>
</svg>
