<svg width="32" height="32" viewBox="0 0 32 32" fill="none" xmlns="http://www.w3.org/2000/svg">
<path fill-rule="evenodd" clip-rule="evenodd" d="M15.404 4.08532C15.5813 4.16363 15.732 4.29176 15.8378 4.45415C15.9436 4.61654 16 4.80617 16 4.99999V27C16.0001 27.1939 15.9439 27.3836 15.8381 27.5461C15.7324 27.7086 15.5817 27.8368 15.4044 27.9152C15.2271 27.9936 15.0309 28.0188 14.8395 27.9877C14.6482 27.9566 14.47 27.8705 14.3266 27.74L7.27998 21.3333H3.66665C3.04781 21.3333 2.45432 21.0875 2.01673 20.6499C1.57915 20.2123 1.33331 19.6188 1.33331 19V13C1.33331 11.712 2.37865 10.6667 3.66665 10.6667H7.27998L14.3266 4.25999C14.4701 4.12986 14.6483 4.0442 14.8396 4.01343C15.0308 3.98266 15.2269 4.0081 15.404 4.08666V4.08532ZM14 7.25999L8.33998 12.4067C8.15573 12.5741 7.91563 12.6668 7.66665 12.6667H3.66665C3.57824 12.6667 3.49346 12.7018 3.43094 12.7643C3.36843 12.8268 3.33331 12.9116 3.33331 13V19C3.33331 19.184 3.48265 19.3333 3.66665 19.3333H7.66665C7.91563 19.3331 8.15573 19.4259 8.33998 19.5933L14 24.74V7.25999Z" fill="#FFFFFF"/>
<path d="M24.9573 5.62937C25.1448 5.4421 25.399 5.33691 25.664 5.33691C25.929 5.33691 26.1831 5.4421 26.3706 5.62937C32.0986 11.3574 32.0986 20.6427 26.3706 26.3707C26.1811 26.5473 25.9303 26.6435 25.6713 26.6389C25.4122 26.6344 25.165 26.5294 24.9818 26.3462C24.7986 26.163 24.6936 25.9158 24.6891 25.6567C24.6845 25.3977 24.7807 25.1469 24.9573 24.9574C26.1337 23.7811 27.0669 22.3847 27.7036 20.8478C28.3402 19.3109 28.6679 17.6636 28.6679 16C28.6679 14.3365 28.3402 12.6892 27.7036 11.1523C27.0669 9.61538 26.1337 8.21893 24.9573 7.0427C24.77 6.8552 24.6649 6.60103 24.6649 6.33603C24.6649 6.07103 24.77 5.81687 24.9573 5.62937Z" fill="#FFFFFF"/>
<path d="M21.6573 10.3427C21.5644 10.2498 21.4541 10.1761 21.3328 10.1258C21.2114 10.0756 21.0813 10.0497 20.95 10.0497C20.8186 10.0497 20.6885 10.0756 20.5672 10.1258C20.4458 10.1761 20.3355 10.2498 20.2426 10.3427C20.1497 10.4356 20.0761 10.5458 20.0258 10.6672C19.9755 10.7886 19.9496 10.9186 19.9496 11.05C19.9496 11.1814 19.9755 11.3114 20.0258 11.4328C20.0761 11.5542 20.1497 11.6644 20.2426 11.7573C20.7998 12.3145 21.2418 12.9759 21.5433 13.7039C21.8448 14.4318 22 15.2121 22 16C22 16.7879 21.8448 17.5682 21.5433 18.2961C21.2418 19.0241 20.7998 19.6855 20.2426 20.2427C20.066 20.4322 19.9698 20.683 19.9744 20.942C19.979 21.2011 20.0839 21.4483 20.2671 21.6315C20.4504 21.8147 20.6975 21.9197 20.9566 21.9242C21.2157 21.9288 21.4664 21.8326 21.656 21.656C23.1561 20.1557 23.9989 18.121 23.9989 15.9993C23.9989 13.8777 23.1575 11.8429 21.6573 10.3427Z" fill="#FFFFFF"/>
</svg>
